<svg width="70" height="12" viewBox="0 0 70 12" fill="none" xmlns="http://www.w3.org/2000/svg">
<path d="M10.8 0.877999L6.712 11H5.011L0.923 0.877999H2.435C2.59833 0.877999 2.73133 0.917666 2.834 0.997C2.93667 1.07633 3.01367 1.179 3.065 1.305L5.452 7.479C5.53133 7.67967 5.606 7.90133 5.676 8.144C5.75067 8.382 5.82067 8.63167 5.886 8.893C5.942 8.63167 6.00267 8.382 6.068 8.144C6.13333 7.90133 6.20567 7.67967 6.285 7.479L8.658 1.305C8.69533 1.19767 8.76767 1.09967 8.875 1.011C8.987 0.922333 9.12233 0.877999 9.281 0.877999H10.8ZM13.3667 3.818V11H11.6307V3.818H13.3667ZM13.6047 1.725C13.6047 1.87433 13.5744 2.01433 13.5137 2.145C13.453 2.27567 13.3714 2.39 13.2687 2.488C13.1707 2.586 13.054 2.66533 12.9187 2.726C12.7834 2.782 12.6387 2.81 12.4847 2.81C12.3354 2.81 12.193 2.782 12.0577 2.726C11.927 2.66533 11.8127 2.586 11.7147 2.488C11.6167 2.39 11.5374 2.27567 11.4767 2.145C11.4207 2.01433 11.3927 1.87433 11.3927 1.725C11.3927 1.571 11.4207 1.42633 11.4767 1.291C11.5374 1.15567 11.6167 1.039 11.7147 0.941C11.8127 0.843 11.927 0.766 12.0577 0.71C12.193 0.649333 12.3354 0.619 12.4847 0.619C12.6387 0.619 12.7834 0.649333 12.9187 0.71C13.054 0.766 13.1707 0.843 13.2687 0.941C13.3714 1.039 13.453 1.15567 13.5137 1.291C13.5744 1.42633 13.6047 1.571 13.6047 1.725ZM19.7564 6.583C19.7564 6.359 19.7237 6.149 19.6584 5.953C19.5977 5.75233 19.5044 5.57733 19.3784 5.428C19.2524 5.27867 19.0914 5.162 18.8954 5.078C18.7041 4.98933 18.4801 4.945 18.2234 4.945C17.7241 4.945 17.3297 5.08733 17.0404 5.372C16.7557 5.65667 16.5737 6.06033 16.4944 6.583H19.7564ZM16.4594 7.626C16.4874 7.99467 16.5527 8.31433 16.6554 8.585C16.7581 8.851 16.8934 9.07267 17.0614 9.25C17.2294 9.42267 17.4277 9.55333 17.6564 9.642C17.8897 9.726 18.1464 9.768 18.4264 9.768C18.7064 9.768 18.9467 9.73533 19.1474 9.67C19.3527 9.60467 19.5301 9.53233 19.6794 9.453C19.8334 9.37367 19.9664 9.30133 20.0784 9.236C20.1951 9.17067 20.3071 9.138 20.4144 9.138C20.5591 9.138 20.6664 9.19167 20.7364 9.299L21.2334 9.929C21.0421 10.153 20.8274 10.342 20.5894 10.496C20.3514 10.6453 20.1017 10.7667 19.8404 10.86C19.5837 10.9487 19.3201 11.0117 19.0494 11.049C18.7834 11.0863 18.5244 11.105 18.2724 11.105C17.7731 11.105 17.3087 11.0233 16.8794 10.86C16.4501 10.692 16.0767 10.447 15.7594 10.125C15.4421 9.79833 15.1924 9.397 15.0104 8.921C14.8284 8.44033 14.7374 7.885 14.7374 7.255C14.7374 6.765 14.8167 6.30533 14.9754 5.876C15.1341 5.442 15.3604 5.06633 15.6544 4.749C15.9531 4.427 16.3147 4.17267 16.7394 3.986C17.1687 3.79933 17.6517 3.706 18.1884 3.706C18.6411 3.706 19.0587 3.77833 19.4414 3.923C19.8241 4.06767 20.1531 4.28 20.4284 4.56C20.7037 4.83533 20.9184 5.176 21.0724 5.582C21.2311 5.98333 21.3104 6.443 21.3104 6.961C21.3104 7.22233 21.2824 7.39967 21.2264 7.493C21.1704 7.58167 21.0631 7.626 20.9044 7.626H16.4594ZM32.7672 3.818L30.4852 11H29.0992C28.9405 11 28.8309 10.8973 28.7702 10.692L27.4822 6.541C27.4402 6.401 27.4005 6.26333 27.3632 6.128C27.3305 5.988 27.3025 5.848 27.2792 5.708C27.2512 5.848 27.2185 5.99033 27.1812 6.135C27.1485 6.275 27.1112 6.415 27.0692 6.555L25.7602 10.692C25.7042 10.8973 25.5805 11 25.3892 11H24.0592L21.7842 3.818H23.1632C23.2892 3.818 23.3965 3.84833 23.4852 3.909C23.5739 3.96967 23.6322 4.04667 23.6602 4.14L24.6892 7.976C24.7405 8.186 24.7849 8.39133 24.8222 8.592C24.8642 8.79267 24.8992 8.99333 24.9272 9.194C24.9785 8.99333 25.0322 8.79267 25.0882 8.592C25.1489 8.39133 25.2119 8.186 25.2772 7.976L26.4672 4.126C26.4952 4.03267 26.5489 3.95567 26.6282 3.895C26.7122 3.83433 26.8125 3.804 26.9292 3.804H27.6922C27.8135 3.804 27.9162 3.83433 28.0002 3.895C28.0889 3.95567 28.1472 4.03267 28.1752 4.126L29.3302 7.976C29.3909 8.186 29.4469 8.39367 29.4982 8.599C29.5542 8.79967 29.6079 9.00033 29.6592 9.201C29.7199 8.80433 29.8062 8.396 29.9182 7.976L30.9752 4.14C31.0079 4.04667 31.0662 3.96967 31.1502 3.909C31.2342 3.84833 31.3345 3.818 31.4512 3.818H32.7672ZM48.1167 0.877999V11H46.4577V4.462C46.4577 4.20067 46.4717 3.91833 46.4997 3.615L43.4407 9.362C43.296 9.63733 43.0743 9.775 42.7757 9.775H42.5097C42.211 9.775 41.9893 9.63733 41.8447 9.362L38.7507 3.594C38.7647 3.748 38.7763 3.89967 38.7857 4.049C38.795 4.19833 38.7997 4.336 38.7997 4.462V11H37.1407V0.877999H38.5617C38.6457 0.877999 38.718 0.880333 38.7787 0.885C38.8393 0.889666 38.893 0.901333 38.9397 0.92C38.991 0.938666 39.0353 0.968999 39.0727 1.011C39.1147 1.053 39.1543 1.109 39.1917 1.179L42.2227 6.8C42.302 6.94933 42.3743 7.10333 42.4397 7.262C42.5097 7.42067 42.5773 7.584 42.6427 7.752C42.708 7.57933 42.7757 7.41367 42.8457 7.255C42.9157 7.09167 42.9903 6.93533 43.0697 6.786L46.0587 1.179C46.096 1.109 46.1357 1.053 46.1777 1.011C46.2197 0.968999 46.264 0.938666 46.3107 0.92C46.362 0.901333 46.418 0.889666 46.4787 0.885C46.5393 0.880333 46.6117 0.877999 46.6957 0.877999H48.1167ZM53.0613 3.706C53.5933 3.706 54.0763 3.79233 54.5103 3.965C54.949 4.13767 55.3223 4.38267 55.6303 4.7C55.943 5.01733 56.1833 5.40467 56.3513 5.862C56.5193 6.31933 56.6033 6.83033 56.6033 7.395C56.6033 7.96433 56.5193 8.47767 56.3513 8.935C56.1833 9.39233 55.943 9.782 55.6303 10.104C55.3223 10.426 54.949 10.6733 54.5103 10.846C54.0763 11.0187 53.5933 11.105 53.0613 11.105C52.5246 11.105 52.037 11.0187 51.5983 10.846C51.1596 10.6733 50.784 10.426 50.4713 10.104C50.1633 9.782 49.923 9.39233 49.7503 8.935C49.5823 8.47767 49.4983 7.96433 49.4983 7.395C49.4983 6.83033 49.5823 6.31933 49.7503 5.862C49.923 5.40467 50.1633 5.01733 50.4713 4.7C50.784 4.38267 51.1596 4.13767 51.5983 3.965C52.037 3.79233 52.5246 3.706 53.0613 3.706ZM53.0613 9.775C53.6586 9.775 54.0996 9.57433 54.3843 9.173C54.6736 8.77167 54.8183 8.18367 54.8183 7.409C54.8183 6.63433 54.6736 6.044 54.3843 5.638C54.0996 5.232 53.6586 5.029 53.0613 5.029C52.4546 5.029 52.0043 5.23433 51.7103 5.645C51.421 6.051 51.2763 6.639 51.2763 7.409C51.2763 8.179 51.421 8.767 51.7103 9.173C52.0043 9.57433 52.4546 9.775 53.0613 9.775ZM59.5534 5.064C59.7774 4.63467 60.0434 4.29867 60.3514 4.056C60.6594 3.80867 61.0234 3.685 61.4434 3.685C61.7747 3.685 62.0407 3.75733 62.2414 3.902L62.1294 5.197C62.106 5.281 62.071 5.34167 62.0244 5.379C61.9824 5.41167 61.924 5.428 61.8494 5.428C61.7794 5.428 61.6744 5.41633 61.5344 5.393C61.399 5.36967 61.266 5.358 61.1354 5.358C60.944 5.358 60.7737 5.386 60.6244 5.442C60.475 5.498 60.3397 5.57967 60.2184 5.687C60.1017 5.78967 59.9967 5.91567 59.9034 6.065C59.8147 6.21433 59.7307 6.38467 59.6514 6.576V11H57.9224V3.818H58.9374C59.1147 3.818 59.2384 3.85067 59.3084 3.916C59.3784 3.97667 59.425 4.08867 59.4484 4.252L59.5534 5.064ZM67.5669 6.583C67.5669 6.359 67.5343 6.149 67.4689 5.953C67.4083 5.75233 67.3149 5.57733 67.1889 5.428C67.0629 5.27867 66.9019 5.162 66.7059 5.078C66.5146 4.98933 66.2906 4.945 66.0339 4.945C65.5346 4.945 65.1403 5.08733 64.8509 5.372C64.5663 5.65667 64.3843 6.06033 64.3049 6.583H67.5669ZM64.2699 7.626C64.2979 7.99467 64.3633 8.31433 64.4659 8.585C64.5686 8.851 64.7039 9.07267 64.8719 9.25C65.0399 9.42267 65.2383 9.55333 65.4669 9.642C65.7003 9.726 65.9569 9.768 66.2369 9.768C66.5169 9.768 66.7573 9.73533 66.9579 9.67C67.1633 9.60467 67.3406 9.53233 67.4899 9.453C67.6439 9.37367 67.7769 9.30133 67.8889 9.236C68.0056 9.17067 68.1176 9.138 68.2249 9.138C68.3696 9.138 68.4769 9.19167 68.5469 9.299L69.0439 9.929C68.8526 10.153 68.6379 10.342 68.3999 10.496C68.1619 10.6453 67.9123 10.7667 67.6509 10.86C67.3943 10.9487 67.1306 11.0117 66.8599 11.049C66.5939 11.0863 66.3349 11.105 66.0829 11.105C65.5836 11.105 65.1193 11.0233 64.6899 10.86C64.2606 10.692 63.8873 10.447 63.5699 10.125C63.2526 9.79833 63.0029 9.397 62.8209 8.921C62.6389 8.44033 62.5479 7.885 62.5479 7.255C62.5479 6.765 62.6273 6.30533 62.7859 5.876C62.9446 5.442 63.1709 5.06633 63.4649 4.749C63.7636 4.427 64.1253 4.17267 64.5499 3.986C64.9793 3.79933 65.4623 3.706 65.9989 3.706C66.4516 3.706 66.8693 3.77833 67.2519 3.923C67.6346 4.06767 67.9636 4.28 68.2389 4.56C68.5143 4.83533 68.7289 5.176 68.8829 5.582C69.0416 5.98333 69.1209 6.443 69.1209 6.961C69.1209 7.22233 69.0929 7.39967 69.0369 7.493C68.9809 7.58167 68.8736 7.626 68.7149 7.626H64.2699Z" fill="#3B71F9"/>
</svg>
